<svg width="30" height="30" viewBox="0 0 30 30" fill="none" xmlns="http://www.w3.org/2000/svg">
<g id="bx:bxl-instagram">
<path id="Vector" d="M14.9987 9.22266C13.4658 9.22266 11.9956 9.83162 10.9117 10.9156C9.82771 11.9995 9.21875 13.4697 9.21875 15.0027C9.21875 16.5356 9.82771 18.0058 10.9117 19.0897C11.9956 20.1737 13.4658 20.7827 14.9987 20.7827C16.5317 20.7827 18.0019 20.1737 19.0858 19.0897C20.1698 18.0058 20.7787 16.5356 20.7787 15.0027C20.7787 13.4697 20.1698 11.9995 19.0858 10.9156C18.0019 9.83162 16.5317 9.22266 14.9987 9.22266ZM14.9987 18.7564C14.0029 18.7564 13.0478 18.3608 12.3436 17.6566C11.6394 16.9524 11.2437 15.9973 11.2437 15.0014C11.2437 14.0055 11.6394 13.0504 12.3436 12.3462C13.0478 11.642 14.0029 11.2464 14.9987 11.2464C15.9946 11.2464 16.9497 11.642 17.6539 12.3462C18.3581 13.0504 18.7537 14.0055 18.7537 15.0014C18.7537 15.9973 18.3581 16.9524 17.6539 17.6566C16.9497 18.3608 15.9946 18.7564 14.9987 18.7564Z" fill="#CDCDCD"/>
<path id="Vector_2" d="M21.0077 10.3552C21.7519 10.3552 22.3552 9.75186 22.3552 9.00766C22.3552 8.26345 21.7519 7.66016 21.0077 7.66016C20.2635 7.66016 19.6602 8.26345 19.6602 9.00766C19.6602 9.75186 20.2635 10.3552 21.0077 10.3552Z" fill="#CDCDCD"/>
<path id="Vector_3" d="M25.6662 7.63836C25.3768 6.89108 24.9346 6.21246 24.3679 5.64593C23.8011 5.0794 23.1223 4.63745 22.3749 4.34836C21.5004 4.02006 20.5764 3.84254 19.6424 3.82336C18.4387 3.77086 18.0574 3.75586 15.0049 3.75586C11.9524 3.75586 11.5612 3.75586 10.3674 3.82336C9.43418 3.84156 8.51089 4.01911 7.63744 4.34836C6.88986 4.63711 6.2109 5.07895 5.64411 5.64552C5.07732 6.21209 4.63523 6.89089 4.34619 7.63836C4.01782 8.51287 3.84071 9.4369 3.82244 10.3709C3.76869 11.5734 3.75244 11.9546 3.75244 15.0084C3.75244 18.0609 3.75244 18.4496 3.82244 19.6459C3.84119 20.5809 4.01744 21.5034 4.34619 22.3796C4.63604 23.1268 5.07856 23.8053 5.64549 24.3718C6.21241 24.9383 6.89127 25.3803 7.63869 25.6696C8.51048 26.0111 9.43416 26.2013 10.3699 26.2321C11.5737 26.2846 11.9549 26.3008 15.0074 26.3008C18.0599 26.3008 18.4512 26.3008 19.6449 26.2321C20.5788 26.2131 21.5027 26.036 22.3774 25.7084C23.1246 25.4186 23.8032 24.9762 24.3699 24.4096C24.9366 23.8429 25.3789 23.1643 25.6687 22.4171C25.9974 21.5421 26.1737 20.6196 26.1924 19.6846C26.2462 18.4821 26.2624 18.1009 26.2624 15.0471C26.2624 11.9934 26.2624 11.6059 26.1924 10.4096C26.1779 9.46245 25.9999 8.52492 25.6662 7.63836ZM24.1437 19.5534C24.1356 20.2737 24.0041 20.9874 23.7549 21.6634C23.5672 22.1494 23.2798 22.5909 22.9113 22.9592C22.5427 23.3275 22.1011 23.6147 21.6149 23.8021C20.9465 24.0502 20.2404 24.1817 19.5274 24.1909C18.3399 24.2459 18.0049 24.2596 14.9599 24.2596C11.9124 24.2596 11.6012 24.2596 10.3912 24.1909C9.6786 24.1821 8.97285 24.0506 8.30494 23.8021C7.81705 23.6158 7.37369 23.3292 7.00355 22.9608C6.63341 22.5924 6.34474 22.1504 6.15619 21.6634C5.9105 20.9947 5.77908 20.2894 5.76744 19.5771C5.71369 18.3896 5.70119 18.0546 5.70119 15.0096C5.70119 11.9634 5.70119 11.6521 5.76744 10.4409C5.77552 9.72088 5.90701 9.00763 6.15619 8.33211C6.53744 7.34586 7.31869 6.56961 8.30494 6.19211C8.97318 5.94478 9.67872 5.81331 10.3912 5.80336C11.5799 5.74961 11.9137 5.73461 14.9599 5.73461C18.0062 5.73461 18.3187 5.73461 19.5274 5.80336C20.2405 5.81194 20.9466 5.94345 21.6149 6.19211C22.1011 6.37995 22.5426 6.66736 22.9112 7.0359C23.2797 7.40443 23.5671 7.84595 23.7549 8.33211C24.0006 9.00079 24.1321 9.70606 24.1437 10.4184C24.1974 11.6071 24.2112 11.9409 24.2112 14.9871C24.2112 18.0321 24.2112 18.3596 24.1574 19.5546H24.1437V19.5534Z" fill="#CDCDCD"/>
</g>
</svg>
