<svg width="30" height="30" viewBox="0 0 30 30" fill="none" xmlns="http://www.w3.org/2000/svg">
<g id="akar-icons:pinterest-fill">
<path id="Vector" d="M3.27197 14.9997C3.27197 20.0066 6.41023 24.2815 10.8269 25.9635C10.7194 25.0478 10.605 23.5378 10.8513 22.4783C11.0634 21.5674 12.2206 16.6748 12.2206 16.6748C12.2206 16.6748 11.8716 15.976 11.8716 14.941C11.8716 13.3186 12.8119 12.1067 13.9837 12.1067C14.9806 12.1067 15.4614 12.8544 15.4614 13.7506C15.4614 14.7524 14.8232 16.2497 14.4939 17.6385C14.2192 18.8006 15.0773 19.7486 16.2228 19.7486C18.2977 19.7486 19.8937 17.5603 19.8937 14.4015C19.8937 11.6053 17.8843 9.65161 15.0158 9.65161C11.6947 9.65161 9.74494 12.1429 9.74494 14.7182C9.74494 15.7219 10.131 16.797 10.6138 17.3824C10.655 17.4266 10.6841 17.4807 10.6983 17.5394C10.7125 17.5981 10.7113 17.6595 10.6949 17.7177C10.606 18.0871 10.4086 18.8797 10.3704 19.042C10.3186 19.255 10.2014 19.301 9.97951 19.1974C8.5213 18.5191 7.61042 16.3875 7.61042 14.6752C7.61042 10.9915 10.2854 7.60993 15.3236 7.60993C19.3738 7.60993 22.5218 10.496 22.5218 14.3526C22.5218 18.3764 19.9856 21.6153 16.4632 21.6153C15.2797 21.6153 14.1684 20.9996 13.7873 20.2734C13.7873 20.2734 13.2018 22.5037 13.0601 23.0491C12.7845 24.1085 12.0202 25.4494 11.5462 26.2108C12.6389 26.547 13.798 26.7278 15.0001 26.7278C21.477 26.7278 26.7283 21.4765 26.7283 14.9997C26.7283 8.52277 21.477 3.27148 15.0001 3.27148C8.52326 3.27148 3.27197 8.52277 3.27197 14.9997Z" fill="#CDCDCD"/>
</g>
</svg>
