<svg width="116" height="36" viewBox="0 0 116 36" fill="none" xmlns="http://www.w3.org/2000/svg">
<g id="Group">
<path id="Vector" d="M4.99316 35.5H4.99422H110.944C113.414 35.5 115.5 33.4738 115.5 30.9769V5.0171C115.5 2.51843 113.413 0.5 110.944 0.5L4.99422 0.5L4.9939 0.5C3.80188 0.500759 2.6595 0.977511 1.81725 1.82458C0.975119 2.67154 0.501759 3.81949 0.5 5.01637V5.0171L0.499999 30.9769L0.500001 30.9777C0.501754 32.175 0.974825 33.3234 1.81663 34.1713C2.65854 35.0193 3.80072 35.4975 4.99316 35.5Z" fill="white" stroke="#CDCDCD"/>
<g id="Group 1004">
<path id="Vector_2" fill-rule="evenodd" clip-rule="evenodd" d="M26.5835 17.1521C26.5583 14.5028 28.8035 13.2147 28.9053 13.1539C27.635 11.343 25.6649 11.0956 24.9726 11.0759C23.3179 10.9057 21.7128 12.0434 20.8699 12.0434C20.0102 12.0434 18.7122 11.0923 17.3132 11.1203C15.513 11.1474 13.8289 12.1658 12.9052 13.7474C10.999 16.9721 12.4207 21.7109 14.247 24.3183C15.1605 25.5941 16.2281 27.0194 17.6253 26.9685C18.9923 26.9142 19.5029 26.1177 21.1526 26.1177C22.7871 26.1177 23.2666 26.9685 24.6916 26.9372C26.1587 26.9142 27.0823 25.6549 27.9639 24.366C29.0197 22.9037 29.4436 21.4627 29.4605 21.3887C29.426 21.3772 26.6113 20.3283 26.5835 17.1521ZM23.8916 9.36117C24.6268 8.46272 25.1299 7.2404 24.9902 6C23.9261 6.04603 22.5953 6.71925 21.8289 7.59797C21.1509 8.3723 20.5452 9.64147 20.7017 10.835C21.897 10.9221 23.1244 10.2456 23.8916 9.36117ZM43.0941 22.2247L42.1478 19.3682C42.0468 19.0764 41.8601 18.39 41.5833 17.3075H41.5497C41.3818 17.9967 41.2046 18.6836 41.018 19.3682L40.0885 22.2247H43.0941ZM46.3665 26.7868H44.4561L43.4096 23.5728H39.7722L38.7753 26.7868H36.9154L40.5192 15.8468H42.745L46.3665 26.786V26.7868ZM53.8071 22.8091C53.8071 22.0414 53.6304 21.4084 53.2755 20.9103C52.8885 20.3908 52.3669 20.131 51.7141 20.131C51.2717 20.131 50.8696 20.2757 50.5112 20.5609C50.1503 20.8486 49.9148 21.2243 49.8046 21.6896C49.749 21.9066 49.7213 22.0841 49.7213 22.2239V23.5391C49.7213 24.1128 49.9013 24.597 50.2614 24.9924C50.6214 25.3877 51.0891 25.585 51.6645 25.585C52.34 25.585 52.8658 25.3302 53.2418 24.8222C53.6187 24.3134 53.8071 23.6426 53.8071 22.8091ZM55.6342 22.745C55.6342 24.0865 55.2641 25.1469 54.5213 25.9253C53.8567 26.6183 53.0323 26.9643 52.0464 26.9643C50.9831 26.9643 50.2193 26.5912 49.7541 25.8448H49.7204V30H47.927V21.4947C47.927 20.6514 47.9043 19.7858 47.8605 18.898H49.4378L49.5387 20.1483H49.5724C50.1697 19.2063 51.0782 18.7361 52.2954 18.7361C53.2477 18.7361 54.0426 19.1035 54.6786 19.8392C55.3163 20.5757 55.6342 21.5441 55.6342 22.745ZM63.0917 22.8091C63.0917 22.0414 62.915 21.4084 62.5583 20.9103C62.1714 20.3908 61.6523 20.131 60.9987 20.131C60.5545 20.131 60.1541 20.2757 59.7941 20.5609C59.4332 20.8486 59.1993 21.2243 59.0883 21.6896C59.0345 21.9066 59.0058 22.0841 59.0058 22.2239V23.5391C59.0058 24.1128 59.185 24.597 59.5442 24.9924C59.9043 25.3869 60.372 25.585 60.9491 25.585C61.6246 25.585 62.1503 25.3302 62.5264 24.8222C62.9024 24.3134 63.0917 23.6426 63.0917 22.8091ZM64.9188 22.745C64.9188 24.0865 64.547 25.1469 63.805 25.9253C63.1413 26.6183 62.3161 26.9643 61.3301 26.9643C60.2677 26.9643 59.503 26.5912 59.0395 25.8448H59.0058V30H57.2124V21.4947C57.2124 20.6514 57.1897 19.7858 57.1459 18.898H58.7232L58.8241 20.1483H58.8578C59.4551 19.2063 60.3619 18.7361 61.5808 18.7361C62.5323 18.7361 63.3264 19.1035 63.9649 19.8392C64.6 20.5757 64.9188 21.5441 64.9188 22.745ZM75.3003 23.7191C75.3003 24.6488 74.9689 25.4066 74.3051 25.9911C73.5758 26.6298 72.5605 26.9487 71.2557 26.9487C70.0511 26.9487 69.0854 26.7202 68.3543 26.2665L68.7699 24.8058C69.5507 25.2699 70.4486 25.5119 71.3626 25.5045C72.0381 25.5045 72.5638 25.354 72.9415 25.0573C73.3176 24.7606 73.5051 24.3594 73.5051 23.8629C73.5051 23.419 73.3504 23.045 73.0391 22.7417C72.7312 22.4376 72.2155 22.1565 71.4955 21.8951C69.5354 21.1799 68.5562 20.1351 68.5562 18.7583C68.5562 17.8598 68.8995 17.1225 69.5867 16.5471C70.2706 15.9742 71.1851 15.6873 72.3274 15.6873C73.3461 15.6873 74.1924 15.8599 74.8679 16.2052L74.4195 17.6354C73.7886 17.2984 73.0744 17.1316 72.277 17.1316C71.646 17.1316 71.1531 17.2828 70.7998 17.5861C70.6566 17.7099 70.5424 17.8624 70.4651 18.0332C70.3877 18.2039 70.3489 18.389 70.3514 18.5758C70.3514 19.0098 70.5222 19.3666 70.8654 19.6485C71.164 19.9066 71.7066 20.1878 72.494 20.4911C73.4572 20.8708 74.1647 21.3131 74.6198 21.8219C75.0723 22.3283 75.2995 22.962 75.2995 23.7191M81.2292 20.2132H79.2524V24.0429C79.2524 25.017 79.6006 25.5045 80.2997 25.5045C80.6194 25.5045 80.8852 25.4765 81.0955 25.4223L81.1451 26.7531C80.7918 26.8821 80.3266 26.9471 79.7504 26.9471C79.0421 26.9471 78.4885 26.7367 78.0898 26.3141C77.6911 25.8916 77.4909 25.1831 77.4909 24.1876V20.2116H76.3131V18.8964H77.4909V17.4521L79.2524 16.9326V18.8964H81.2292V20.2132ZM88.2871 22.8338C88.2871 22.1055 88.1289 21.4816 87.8076 20.9621C87.4307 20.3324 86.8932 20.0184 86.1966 20.0184C85.4749 20.0184 84.9289 20.3333 84.5529 20.9621C84.2307 21.4824 84.0709 22.117 84.0709 22.8667C84.0709 23.5941 84.2307 24.218 84.5529 24.7367C84.9399 25.3672 85.4808 25.682 86.1798 25.682C86.8663 25.682 87.403 25.3598 87.7908 24.7211C88.1214 24.1901 88.2871 23.5604 88.2871 22.8338ZM90.1496 22.7771C90.1496 23.9887 89.7937 24.985 89.0854 25.7626C88.3418 26.5648 87.3567 26.9635 86.1277 26.9635C84.9424 26.9635 83.9994 26.5805 83.297 25.8127C82.5929 25.0441 82.2412 24.0758 82.2412 22.9078C82.2412 21.6854 82.603 20.6842 83.3298 19.905C84.0549 19.1257 85.0324 18.7377 86.2614 18.7377C87.445 18.7377 88.3981 19.12 89.1174 19.8894C89.8063 20.6349 90.1496 21.5975 90.1496 22.7771ZM95.9784 20.4393C95.7919 20.4061 95.6026 20.3896 95.4131 20.39C94.7822 20.39 94.2943 20.6234 93.951 21.0895C93.6524 21.5005 93.5027 22.02 93.5027 22.6472V26.786H91.7109L91.7277 21.3813C91.7277 20.473 91.7041 19.6452 91.6604 18.8989H93.2217L93.2873 20.4081H93.3378C93.5262 19.8902 93.824 19.4718 94.2337 19.1586C94.608 18.8852 95.0626 18.737 95.53 18.7361C95.6957 18.7361 95.8455 18.7468 95.9784 18.769V20.4393ZM102.289 22.0151C102.301 21.4947 102.184 21.0459 101.941 20.667C101.631 20.1795 101.154 19.9362 100.512 19.9362C99.9254 19.9362 99.4484 20.1746 99.0842 20.6514C98.7855 21.0295 98.608 21.4832 98.5534 22.0134H102.289V22.0142V22.0151ZM103.999 22.4688C104.004 22.7352 103.982 23.0014 103.934 23.2637H98.5534C98.5744 24.0429 98.8343 24.6381 99.334 25.0491C99.7874 25.4173 100.374 25.6015 101.094 25.6015C101.89 25.6015 102.617 25.4782 103.271 25.2283L103.552 26.4448C102.788 26.7704 101.886 26.9315 100.846 26.9315C99.5939 26.9315 98.6114 26.5722 97.8964 25.853C97.183 25.1337 96.8255 24.1679 96.8255 22.9563C96.8255 21.7668 97.1578 20.7763 97.8232 19.9864C98.5197 19.143 99.461 18.7213 100.645 18.7213C101.809 18.7213 102.69 19.143 103.288 19.9872C103.761 20.6563 103.999 21.4841 103.999 22.4696V22.4688ZM41.5715 9.14087C41.5715 8.51368 41.4016 8.03281 41.0618 7.69743C40.7219 7.36288 40.2256 7.19601 39.572 7.19601C39.2943 7.19601 39.058 7.21328 38.862 7.25109V11.2707C38.9705 11.2871 39.169 11.2937 39.4575 11.2937C40.1322 11.2937 40.6521 11.1104 41.0197 10.7438C41.3865 10.3772 41.5715 9.84286 41.5715 9.14087ZM42.5011 9.11703C42.5011 10.0845 42.2041 10.8128 41.6111 11.3019C41.0618 11.754 40.2811 11.9792 39.27 11.9792C38.7686 11.9792 38.3396 11.9579 37.9804 11.9151V6.62965C38.4489 6.55567 38.9537 6.51704 39.4988 6.51704C40.462 6.51704 41.1879 6.72254 41.6775 7.13107C42.226 7.59386 42.5011 8.25557 42.5011 9.11703ZM46.5154 9.98918C46.5154 9.63243 46.4363 9.32582 46.279 9.07018C46.0939 8.76111 45.8306 8.60657 45.4883 8.60657C45.1341 8.60657 44.8649 8.76111 44.6798 9.07018C44.5217 9.325 44.4435 9.63736 44.4435 10.0056C44.4435 10.3632 44.5225 10.6698 44.679 10.9254C44.8708 11.2345 45.1366 11.389 45.4799 11.389C45.8163 11.389 46.0805 11.232 46.2706 10.9172C46.4338 10.6566 46.5146 10.3476 46.5146 9.99M47.4298 9.96205C47.4298 10.558 47.2557 11.0463 46.9074 11.4293C46.5423 11.8231 46.0578 12.0195 45.4546 12.0195C44.8725 12.0195 44.409 11.8305 44.0632 11.4523C43.7183 11.0759 43.5459 10.5999 43.5459 10.0262C43.5459 9.4261 43.7225 8.9329 44.0801 8.55149C44.4367 8.16926 44.9162 7.97774 45.5202 7.97774C46.1024 7.97774 46.5701 8.16598 46.9242 8.54327C47.2607 8.90989 47.429 9.38336 47.429 9.96205M54.0384 8.05747L52.7976 11.9316H51.9901L51.4769 10.2489C51.3485 9.83724 51.2418 9.41939 51.1573 8.99702H51.1413C51.0652 9.42112 50.9587 9.83946 50.8224 10.2489L50.2765 11.9316H49.4605L48.2921 8.05747H49.1981L49.6464 9.89958C49.7558 10.3352 49.8441 10.7504 49.9156 11.1433H49.9324C49.9972 10.8194 50.1057 10.4068 50.2588 9.9078L50.8224 8.05829H51.54L52.0792 9.86834C52.2096 10.3098 52.3156 10.7347 52.3972 11.1441H52.4225C52.4813 10.7454 52.5713 10.3204 52.6916 9.86834L53.172 8.05829H54.0384V8.05747ZM58.6088 11.9316H57.7272V9.71216C57.7272 9.02826 57.4614 8.6863 56.928 8.6863C56.8069 8.68283 56.6866 8.70642 56.5762 8.75528C56.4659 8.80415 56.3684 8.87699 56.2912 8.96825C56.13 9.15334 56.0433 9.38943 56.0473 9.63243V11.9307H55.1648V9.16389C55.1648 8.82358 55.1539 8.4545 55.1329 8.05501H55.9076L55.9497 8.66082H55.9732C56.0759 8.47258 56.229 8.31722 56.43 8.1931C56.6689 8.04843 56.9364 7.97527 57.2292 7.97527C57.5993 7.97527 57.9072 8.092 58.152 8.32627C58.4557 8.61397 58.6088 9.04141 58.6088 9.61023V11.9316Z" fill="#0B0C0E"/>
<path id="Vector_3" fill-rule="evenodd" clip-rule="evenodd" d="M60.1592 11.9327H61.0399V6.27979H60.1592V11.9327ZM65.315 9.9903C65.315 9.63355 65.236 9.32695 65.0786 9.0713C64.8936 8.76223 64.6311 8.6077 64.2879 8.6077C63.9337 8.6077 63.6645 8.76223 63.4803 9.0713C63.3222 9.32613 63.2439 9.63849 63.2439 10.0067C63.2439 10.3643 63.323 10.6709 63.4795 10.9266C63.6713 11.2356 63.9371 11.3902 64.2812 11.3902C64.6168 11.3902 64.8801 11.2332 65.0702 10.9183C65.2343 10.6578 65.3142 10.3487 65.3142 9.99113M66.2303 9.96318C66.2303 10.5591 66.0561 11.0474 65.7079 11.4305C65.3428 11.8242 64.8582 12.0206 64.2551 12.0206C63.6721 12.0206 63.2086 11.8316 62.8637 11.4535C62.5188 11.077 62.3464 10.6011 62.3464 10.0273C62.3464 9.42723 62.523 8.93403 62.8805 8.55262C63.2372 8.17039 63.7167 7.97886 64.319 7.97886C64.9028 7.97886 65.3697 8.1671 65.7239 8.5444C66.0603 8.91101 66.2303 9.38449 66.2303 9.96318ZM69.5817 10.6011V10.0035C68.6092 9.98702 68.123 10.2476 68.123 10.7844C68.123 10.9866 68.1785 11.1378 68.2921 11.2389C68.4104 11.3416 68.5647 11.3958 68.7228 11.3902C68.9163 11.3902 69.0972 11.3302 69.262 11.211C69.3622 11.1425 69.4437 11.0511 69.4994 10.9448C69.5551 10.8385 69.5833 10.7205 69.5817 10.6011ZM70.497 11.9327H69.7045L69.6389 11.4863H69.6153C69.3445 11.8423 68.9592 12.0206 68.457 12.0206C68.0826 12.0206 67.779 11.9031 67.5518 11.6697C67.4494 11.5646 67.3693 11.4408 67.316 11.3054C67.2627 11.1699 67.2374 11.0256 67.2414 10.8805C67.2414 10.4071 67.4433 10.0462 67.8488 9.79631C68.2551 9.54642 68.8254 9.42394 69.5598 9.4297V9.35736C69.5598 8.8469 69.2847 8.59208 68.7363 8.59208C68.3451 8.59208 68.0002 8.68825 67.7024 8.87896L67.5232 8.31342C67.8917 8.09066 68.3476 7.97886 68.8835 7.97886C69.919 7.97886 70.4397 8.51317 70.4397 9.58177V11.0088C70.4397 11.3959 70.4591 11.7042 70.497 11.9327ZM74.5937 10.2986V9.65246C74.602 9.50345 74.5754 9.35455 74.5159 9.21709C74.4564 9.07964 74.3656 8.95725 74.2505 8.85923C74.0876 8.71917 73.8769 8.6438 73.6599 8.64797C73.3319 8.64797 73.0728 8.77538 72.8843 9.03103C72.6967 9.28585 72.6017 9.613 72.6017 10.0117C72.6017 10.3947 72.6917 10.7054 72.8726 10.9446C73.0635 11.1995 73.3201 11.3269 73.6431 11.3269C73.9325 11.3269 74.1647 11.22 74.3397 11.0079C74.5087 10.8107 74.5929 10.5747 74.5929 10.2986M75.5064 11.9327H74.7241L74.682 11.3104H74.6585C74.4086 11.7839 73.9821 12.0206 73.384 12.0206C72.907 12.0206 72.5092 11.8373 72.1929 11.4699C71.8774 11.1041 71.7218 10.6282 71.7218 10.0437C71.7218 9.41655 71.8917 8.90855 72.2349 8.52056C72.5672 8.15888 72.9752 7.97804 73.458 7.97804C73.9914 7.97804 74.364 8.15313 74.5752 8.50412H74.5929V6.27979H75.4761V10.8888C75.4761 11.2661 75.4854 11.6138 75.5064 11.9327ZM82.1327 9.9903C82.1327 9.63355 82.0537 9.32695 81.8972 9.0713C81.7104 8.76223 81.448 8.6077 81.1048 8.6077C80.7514 8.6077 80.4822 8.76223 80.2955 9.0713C80.1382 9.32613 80.06 9.63849 80.06 10.0067C80.06 10.3643 80.139 10.6709 80.2955 10.9266C80.4873 11.2356 80.7531 11.3902 81.0963 11.3902C81.4328 11.3902 81.697 11.2332 81.8879 10.9183C82.0503 10.6578 82.1327 10.3487 82.1327 9.99113M83.0463 9.96318C83.0463 10.5591 82.8722 11.0474 82.5247 11.4305C82.1588 11.8242 81.6759 12.0206 81.0711 12.0206C80.4907 12.0206 80.0263 11.8316 79.6797 11.4535C79.3348 11.077 79.1624 10.6011 79.1624 10.0273C79.1624 9.42723 79.3399 8.93403 79.6965 8.55262C80.0532 8.17039 80.5327 7.97886 81.1367 7.97886C81.7188 7.97886 82.1866 8.1671 82.5416 8.5444C82.878 8.91101 83.0463 9.38449 83.0463 9.96318ZM87.7866 11.9327H86.9058V9.71329C86.9058 9.02938 86.64 8.68743 86.1058 8.68743C85.9848 8.68384 85.8646 8.70738 85.7543 8.75625C85.6441 8.80513 85.5468 8.87804 85.4698 8.96938C85.308 9.15415 85.221 9.39039 85.2251 9.63355V11.9319H84.3418V9.16501C84.3418 8.8247 84.3334 8.45563 84.3115 8.05613H85.0854L85.1266 8.66195H85.151C85.259 8.46981 85.4164 8.30858 85.6078 8.19423C85.8476 8.04956 86.1142 7.9764 86.407 7.9764C86.7771 7.9764 87.085 8.09312 87.3298 8.32739C87.6351 8.61509 87.7866 9.04253 87.7866 9.61136V11.9327ZM93.7197 8.70305H92.7489V10.5854C92.7489 11.0638 92.9222 11.303 93.2621 11.303C93.4219 11.303 93.5531 11.2899 93.6566 11.2619L93.6776 11.9163C93.5044 11.9804 93.2764 12.0124 92.9937 12.0124C92.6463 12.0124 92.3746 11.9089 92.1777 11.7017C91.9826 11.4946 91.8833 11.146 91.8833 10.6569V8.70305H91.3046V8.05778H91.8842V7.34757L92.7481 7.09275V8.05695H93.718V8.70305H93.7197ZM98.3868 11.9327H97.5035V9.72973C97.5035 9.03514 97.2385 8.68743 96.706 8.68743C96.2972 8.68743 96.0179 8.88882 95.8648 9.2916C95.8396 9.37627 95.8228 9.48066 95.8228 9.6015V11.9319H94.942V6.27979H95.8228V8.61509H95.8404C96.118 8.19012 96.5151 7.97804 97.0316 7.97804C97.3958 7.97804 97.6987 8.09477 97.9384 8.32904C98.2362 8.62085 98.3868 9.05486 98.3868 9.62862V11.9327ZM102.36 9.58917C102.372 9.35685 102.313 9.1263 102.189 8.92745C102.036 8.68825 101.803 8.56824 101.488 8.56824C101.35 8.56595 101.214 8.59678 101.092 8.65799C100.969 8.71921 100.864 8.80893 100.786 8.91923C100.636 9.11426 100.546 9.34635 100.524 9.58917H102.36ZM103.201 9.81193C103.201 9.96646 103.189 10.0963 103.168 10.2024H100.524C100.536 10.5854 100.662 10.8772 100.907 11.0795C101.131 11.2603 101.419 11.3507 101.773 11.3507C102.164 11.3507 102.521 11.2899 102.842 11.1674L102.98 11.7658C102.604 11.9253 102.161 12.005 101.649 12.005C101.035 12.005 100.551 11.8283 100.201 11.4748C99.8497 11.1214 99.6756 10.6471 99.6756 10.052C99.6756 9.46751 99.8379 8.98088 100.165 8.5929C100.507 8.17861 100.969 7.97147 101.551 7.97147C102.122 7.97147 102.555 8.17861 102.848 8.5929C103.084 8.9217 103.201 9.32859 103.201 9.81193Z" fill="#0B0C0E"/>
</g>
</g>
</svg>
