<svg width="116" height="36" viewBox="0 0 116 36" fill="none" xmlns="http://www.w3.org/2000/svg">
<g id="Group">
<path id="Vector" d="M5.22222 35.5H110.778C113.379 35.5 115.5 33.3605 115.5 30.75V5.25C115.5 2.63945 113.379 0.5 110.778 0.5H5.22222C2.62077 0.5 0.5 2.63945 0.5 5.25V30.75C0.5 33.3605 2.62077 35.5 5.22222 35.5Z" fill="white" stroke="#CDCDCD"/>
<g id="Group 1003">
<g id="Group 1001">
<g id="Vector_2">
<mask id="path-2-inside-1_1_10918" fill="white">
<path fill-rule="evenodd" clip-rule="evenodd" d="M40.677 9.35457C40.677 10.0629 40.4672 10.6267 40.0467 11.0477C39.5688 11.5481 38.947 11.7983 38.1823 11.7983C37.4497 11.7983 36.8262 11.5447 36.3144 11.0376C35.8009 10.5304 35.5454 9.89978 35.5454 9.14916C35.5454 8.39769 35.8009 7.76879 36.3152 7.26077C36.8262 6.75359 37.4497 6.5 38.1823 6.5C38.546 6.5 38.8937 6.571 39.2236 6.71217C39.5544 6.85418 39.8192 7.04268 40.0188 7.27852L39.5713 7.72483C39.2355 7.32416 38.7727 7.12298 38.1823 7.12298C37.6476 7.12298 37.1857 7.31064 36.7957 7.68595C36.4066 8.06211 36.212 8.549 36.212 9.14916C36.212 9.74932 36.4066 10.2362 36.7957 10.6115C36.9777 10.7931 37.1942 10.9365 37.4325 11.0332C37.6707 11.1298 37.926 11.1779 38.1831 11.1745C38.7499 11.1745 39.2211 10.986 39.6001 10.6081C39.8454 10.363 39.9875 10.0207 40.0247 9.58111H38.1831V8.97249H40.6423C40.666 9.10436 40.6778 9.23115 40.6778 9.35457"/>
</mask>
<path fill-rule="evenodd" clip-rule="evenodd" d="M40.677 9.35457C40.677 10.0629 40.4672 10.6267 40.0467 11.0477C39.5688 11.5481 38.947 11.7983 38.1823 11.7983C37.4497 11.7983 36.8262 11.5447 36.3144 11.0376C35.8009 10.5304 35.5454 9.89978 35.5454 9.14916C35.5454 8.39769 35.8009 7.76879 36.3152 7.26077C36.8262 6.75359 37.4497 6.5 38.1823 6.5C38.546 6.5 38.8937 6.571 39.2236 6.71217C39.5544 6.85418 39.8192 7.04268 40.0188 7.27852L39.5713 7.72483C39.2355 7.32416 38.7727 7.12298 38.1823 7.12298C37.6476 7.12298 37.1857 7.31064 36.7957 7.68595C36.4066 8.06211 36.212 8.549 36.212 9.14916C36.212 9.74932 36.4066 10.2362 36.7957 10.6115C36.9777 10.7931 37.1942 10.9365 37.4325 11.0332C37.6707 11.1298 37.926 11.1779 38.1831 11.1745C38.7499 11.1745 39.2211 10.986 39.6001 10.6081C39.8454 10.363 39.9875 10.0207 40.0247 9.58111H38.1831V8.97249H40.6423C40.666 9.10436 40.6778 9.23115 40.6778 9.35457" fill="#0B0C0E"/>
<path d="M40.0467 11.0477L39.3392 10.341L39.3313 10.3489L39.3236 10.357L40.0467 11.0477ZM36.3144 11.0376L37.0183 10.3272L37.0171 10.3261L36.3144 11.0376ZM36.3152 7.26077L37.018 7.97223L37.0197 7.97049L36.3152 7.26077ZM39.2236 6.71217L39.6181 5.79328L39.617 5.79279L39.2236 6.71217ZM40.0188 7.27852L40.725 7.98657L41.3775 7.33579L40.7821 6.63241L40.0188 7.27852ZM39.5713 7.72483L38.8049 8.36722L39.5054 9.2029L40.2775 8.43289L39.5713 7.72483ZM36.7957 7.68595L36.1023 6.96542L36.1007 6.96695L36.7957 7.68595ZM36.7957 10.6115L37.5021 9.9037L37.4961 9.89767L37.4899 9.89174L36.7957 10.6115ZM38.1831 11.1745V10.1744L38.1698 10.1746L38.1831 11.1745ZM39.6001 10.6081L40.3061 11.3163L40.3069 11.3155L39.6001 10.6081ZM40.0247 9.58111L41.0212 9.66549L41.113 8.58111H40.0247V9.58111ZM38.1831 9.58111H37.1831V10.5811H38.1831V9.58111ZM38.1831 8.97249V7.97249H37.1831V8.97249H38.1831ZM40.6423 8.97249L41.6265 8.7957L41.4787 7.97249H40.6423V8.97249ZM39.677 9.35457C39.677 9.85224 39.5372 10.1428 39.3392 10.341L40.7543 11.7544C41.3972 11.1107 41.677 10.2736 41.677 9.35457H39.677ZM39.3236 10.357C39.0553 10.6379 38.7057 10.7983 38.1823 10.7983V12.7983C39.1883 12.7983 40.0823 12.4583 40.7699 11.7384L39.3236 10.357ZM38.1823 10.7983C37.7078 10.7983 37.339 10.645 37.0183 10.3272L35.6105 11.7479C36.3134 12.4444 37.1915 12.7983 38.1823 12.7983V10.7983ZM37.0171 10.3261C36.7035 10.0164 36.5454 9.64635 36.5454 9.14916H34.5454C34.5454 10.1532 34.8983 11.0444 35.6117 11.749L37.0171 10.3261ZM36.5454 9.14916C36.5454 8.6519 36.703 8.28333 37.018 7.97223L35.6125 6.5493C34.8988 7.25425 34.5454 8.14348 34.5454 9.14916H36.5454ZM37.0197 7.97049C37.3392 7.65336 37.7077 7.5 38.1823 7.5V5.5C37.1916 5.5 36.3132 5.85382 35.6108 6.55104L37.0197 7.97049ZM38.1823 7.5C38.4122 7.5 38.626 7.54414 38.8303 7.63155L39.617 5.79279C39.1615 5.59787 38.6798 5.5 38.1823 5.5V7.5ZM38.8291 7.63106C39.0412 7.7221 39.1715 7.82526 39.2556 7.92463L40.7821 6.63241C40.4669 6.2601 40.0676 5.98626 39.6181 5.79328L38.8291 7.63106ZM39.3127 6.57047L38.8652 7.01678L40.2775 8.43289L40.725 7.98657L39.3127 6.57047ZM40.3377 7.08245C39.7867 6.42509 39.027 6.12298 38.1823 6.12298V8.12298C38.5185 8.12298 38.6842 8.22323 38.8049 8.36722L40.3377 7.08245ZM38.1823 6.12298C37.3853 6.12298 36.6759 6.41344 36.1023 6.96542L37.4892 8.40648C37.6956 8.20784 37.91 8.12298 38.1823 8.12298V6.12298ZM36.1007 6.96695C35.4949 7.55257 35.212 8.30975 35.212 9.14916H37.212C37.212 8.78825 37.3183 8.57165 37.4907 8.40495L36.1007 6.96695ZM35.212 9.14916C35.212 9.98833 35.4948 10.7461 36.1015 11.3313L37.4899 9.89174C37.3184 9.72632 37.212 9.51032 37.212 9.14916H35.212ZM36.0893 11.3193C36.3658 11.5952 36.6946 11.8129 37.0565 11.9598L37.8085 10.1065C37.6938 10.06 37.5896 9.99102 37.5021 9.9037L36.0893 11.3193ZM37.0565 11.9598C37.4183 12.1066 37.8059 12.1796 38.1964 12.1744L38.1698 10.1746C38.046 10.1762 37.9231 10.1531 37.8085 10.1065L37.0565 11.9598ZM38.1831 12.1745C38.9976 12.1745 39.728 11.8927 40.3061 11.3163L38.894 9.89997C38.7142 10.0793 38.5022 10.1745 38.1831 10.1745V12.1745ZM40.3069 11.3155C40.7597 10.8631 40.9694 10.2765 41.0212 9.66549L39.0283 9.49673C39.0056 9.76484 38.9311 9.86291 38.8932 9.90076L40.3069 11.3155ZM40.0247 8.58111H38.1831V10.5811H40.0247V8.58111ZM39.1831 9.58111V8.97249H37.1831V9.58111H39.1831ZM38.1831 9.97249H40.6423V7.97249H38.1831V9.97249ZM39.658 9.14929C39.6722 9.22814 39.6778 9.29562 39.6778 9.35457H41.6778C41.6778 9.16669 41.6598 8.98058 41.6265 8.7957L39.658 9.14929Z" fill="#0B0C0E" mask="url(#path-2-inside-1_1_10918)"/>
</g>
<path id="Vector_3" fill-rule="evenodd" clip-rule="evenodd" d="M40.677 9.35457C40.677 10.0629 40.4672 10.6267 40.0467 11.0477C39.5688 11.5481 38.947 11.7983 38.1823 11.7983C37.4497 11.7983 36.8262 11.5447 36.3144 11.0376C35.8009 10.5304 35.5454 9.89978 35.5454 9.14916C35.5454 8.39769 35.8009 7.76879 36.3152 7.26077C36.8262 6.75359 37.4497 6.5 38.1823 6.5C38.546 6.5 38.8937 6.571 39.2236 6.71217C39.5544 6.85418 39.8192 7.04268 40.0188 7.27852L39.5713 7.72483C39.2355 7.32416 38.7727 7.12298 38.1823 7.12298C37.6476 7.12298 37.1857 7.31064 36.7957 7.68595C36.4066 8.06211 36.212 8.549 36.212 9.14916C36.212 9.74932 36.4066 10.2362 36.7957 10.6115C36.9777 10.7931 37.1942 10.9365 37.4325 11.0332C37.6707 11.1298 37.926 11.1779 38.1831 11.1745C38.7499 11.1745 39.2211 10.986 39.6001 10.6081C39.8454 10.363 39.9875 10.0207 40.0247 9.58111H38.1831V8.97249H40.6423C40.666 9.10436 40.6778 9.23115 40.6778 9.35457H40.677Z" fill="#0B0C0E" stroke="#0B0C0E" stroke-width="0.2"/>
<g id="Vector_4">
<mask id="path-5-inside-2_1_10918" fill="white">
<path fill-rule="evenodd" clip-rule="evenodd" d="M44.5767 7.2348H42.2655V8.8434H44.3491V9.45286H42.2655V11.0606H44.5767V11.6836H41.6133V6.61182H44.5767V7.2348Z"/>
</mask>
<path fill-rule="evenodd" clip-rule="evenodd" d="M44.5767 7.2348H42.2655V8.8434H44.3491V9.45286H42.2655V11.0606H44.5767V11.6836H41.6133V6.61182H44.5767V7.2348Z" fill="#0B0C0E"/>
<path d="M44.5767 7.2348V8.2348H45.5767V7.2348H44.5767ZM42.2655 7.2348V6.2348H41.2655V7.2348H42.2655ZM42.2655 8.8434H41.2655V9.8434H42.2655V8.8434ZM44.3491 8.8434H45.3491V7.8434H44.3491V8.8434ZM44.3491 9.45286V10.4529H45.3491V9.45286H44.3491ZM42.2655 9.45286V8.45286H41.2655V9.45286H42.2655ZM42.2655 11.0606H41.2655V12.0606H42.2655V11.0606ZM44.5767 11.0606H45.5767V10.0606H44.5767V11.0606ZM44.5767 11.6836V12.6836H45.5767V11.6836H44.5767ZM41.6133 11.6836H40.6133V12.6836H41.6133V11.6836ZM41.6133 6.61182V5.61182H40.6133V6.61182H41.6133ZM44.5767 6.61182H45.5767V5.61182H44.5767V6.61182ZM44.5767 6.2348H42.2655V8.2348H44.5767V6.2348ZM41.2655 7.2348V8.8434H43.2655V7.2348H41.2655ZM42.2655 9.8434H44.3491V7.8434H42.2655V9.8434ZM43.3491 8.8434V9.45286H45.3491V8.8434H43.3491ZM44.3491 8.45286H42.2655V10.4529H44.3491V8.45286ZM41.2655 9.45286V11.0606H43.2655V9.45286H41.2655ZM42.2655 12.0606H44.5767V10.0606H42.2655V12.0606ZM43.5767 11.0606V11.6836H45.5767V11.0606H43.5767ZM44.5767 10.6836H41.6133V12.6836H44.5767V10.6836ZM42.6133 11.6836V6.61182H40.6133V11.6836H42.6133ZM41.6133 7.61182H44.5767V5.61182H41.6133V7.61182ZM43.5767 6.61182V7.2348H45.5767V6.61182H43.5767Z" fill="#0B0C0E" mask="url(#path-5-inside-2_1_10918)"/>
</g>
<path id="Vector_5" fill-rule="evenodd" clip-rule="evenodd" d="M44.5767 7.2348H42.2655V8.8434H44.3491V9.45286H42.2655V11.0606H44.5767V11.6836H41.6133V6.61182H44.5767V7.2348Z" fill="#0B0C0E" stroke="#0B0C0E" stroke-width="0.2"/>
<g id="Vector_6">
<mask id="path-8-inside-3_1_10918" fill="white">
<path fill-rule="evenodd" clip-rule="evenodd" d="M47.3269 11.6836H46.6747V7.2348H45.2568V6.61182H48.7447V7.2348H47.3269V11.6836Z"/>
</mask>
<path fill-rule="evenodd" clip-rule="evenodd" d="M47.3269 11.6836H46.6747V7.2348H45.2568V6.61182H48.7447V7.2348H47.3269V11.6836Z" fill="#0B0C0E"/>
<path d="M47.3269 11.6836V12.6836H48.3269V11.6836H47.3269ZM46.6747 11.6836H45.6747V12.6836H46.6747V11.6836ZM46.6747 7.2348H47.6747V6.2348H46.6747V7.2348ZM45.2568 7.2348H44.2568V8.2348H45.2568V7.2348ZM45.2568 6.61182V5.61182H44.2568V6.61182H45.2568ZM48.7447 6.61182H49.7447V5.61182H48.7447V6.61182ZM48.7447 7.2348V8.2348H49.7447V7.2348H48.7447ZM47.3269 7.2348V6.2348H46.3269V7.2348H47.3269ZM47.3269 10.6836H46.6747V12.6836H47.3269V10.6836ZM47.6747 11.6836V7.2348H45.6747V11.6836H47.6747ZM46.6747 6.2348H45.2568V8.2348H46.6747V6.2348ZM46.2568 7.2348V6.61182H44.2568V7.2348H46.2568ZM45.2568 7.61182H48.7447V5.61182H45.2568V7.61182ZM47.7447 6.61182V7.2348H49.7447V6.61182H47.7447ZM48.7447 6.2348H47.3269V8.2348H48.7447V6.2348ZM46.3269 7.2348V11.6836H48.3269V7.2348H46.3269Z" fill="#0B0C0E" mask="url(#path-8-inside-3_1_10918)"/>
</g>
<path id="Vector_7" fill-rule="evenodd" clip-rule="evenodd" d="M47.3269 11.6836H46.6747V7.2348H45.2568V6.61182H48.7447V7.2348H47.3269V11.6836Z" fill="#0B0C0E" stroke="#0B0C0E" stroke-width="0.2"/>
<g id="Vector_8">
<mask id="path-11-inside-4_1_10918" fill="white">
<path fill-rule="evenodd" clip-rule="evenodd" d="M51.2681 11.6836H51.9203V6.61182H51.2681V11.6836Z"/>
</mask>
<path fill-rule="evenodd" clip-rule="evenodd" d="M51.2681 11.6836H51.9203V6.61182H51.2681V11.6836Z" fill="#0B0C0E"/>
<path d="M51.2681 11.6836H50.2681V12.6836H51.2681V11.6836ZM51.9203 11.6836V12.6836H52.9203V11.6836H51.9203ZM51.9203 6.61182H52.9203V5.61182H51.9203V6.61182ZM51.2681 6.61182V5.61182H50.2681V6.61182H51.2681ZM51.2681 12.6836H51.9203V10.6836H51.2681V12.6836ZM52.9203 11.6836V6.61182H50.9203V11.6836H52.9203ZM51.9203 5.61182H51.2681V7.61182H51.9203V5.61182ZM50.2681 6.61182V11.6836H52.2681V6.61182H50.2681Z" fill="#0B0C0E" mask="url(#path-11-inside-4_1_10918)"/>
</g>
<path id="Vector_9" fill-rule="evenodd" clip-rule="evenodd" d="M51.2681 11.6836H51.9203V6.61182H51.2681V11.6836Z" fill="#0B0C0E" stroke="#0B0C0E" stroke-width="0.2"/>
<g id="Vector_10">
<mask id="path-14-inside-5_1_10918" fill="white">
<path fill-rule="evenodd" clip-rule="evenodd" d="M54.8126 11.6836H54.1612V7.2348H52.7417V6.61182H56.2296V7.2348H54.8118L54.8126 11.6836Z"/>
</mask>
<path fill-rule="evenodd" clip-rule="evenodd" d="M54.8126 11.6836H54.1612V7.2348H52.7417V6.61182H56.2296V7.2348H54.8118L54.8126 11.6836Z" fill="#0B0C0E"/>
<path d="M54.8126 11.6836V12.6836H55.8128L55.8126 11.6834L54.8126 11.6836ZM54.1612 11.6836H53.1612V12.6836H54.1612V11.6836ZM54.1612 7.2348H55.1612V6.2348H54.1612V7.2348ZM52.7417 7.2348H51.7417V8.2348H52.7417V7.2348ZM52.7417 6.61182V5.61182H51.7417V6.61182H52.7417ZM56.2296 6.61182H57.2296V5.61182H56.2296V6.61182ZM56.2296 7.2348V8.2348H57.2296V7.2348H56.2296ZM54.8118 7.2348V6.2348H53.8116L53.8118 7.23499L54.8118 7.2348ZM54.8126 10.6836H54.1612V12.6836H54.8126V10.6836ZM55.1612 11.6836V7.2348H53.1612V11.6836H55.1612ZM54.1612 6.2348H52.7417V8.2348H54.1612V6.2348ZM53.7417 7.2348V6.61182H51.7417V7.2348H53.7417ZM52.7417 7.61182H56.2296V5.61182H52.7417V7.61182ZM55.2296 6.61182V7.2348H57.2296V6.61182H55.2296ZM56.2296 6.2348H54.8118V8.2348H56.2296V6.2348ZM53.8118 7.23499L53.8126 11.6838L55.8126 11.6834L55.8118 7.23461L53.8118 7.23499Z" fill="#0B0C0E" mask="url(#path-14-inside-5_1_10918)"/>
</g>
<path id="Vector_11" fill-rule="evenodd" clip-rule="evenodd" d="M54.8126 11.6836H54.1612V7.2348H52.7417V6.61182H56.2296V7.2348H54.8118L54.8126 11.6836Z" fill="#0B0C0E" stroke="#0B0C0E" stroke-width="0.2"/>
<g id="Vector_12">
<mask id="path-17-inside-6_1_10918" fill="white">
<path fill-rule="evenodd" clip-rule="evenodd" d="M59.5943 10.6048C59.7724 10.7896 59.9868 10.9357 60.2241 11.0338C60.4614 11.1318 60.7165 11.1797 60.9732 11.1745C61.5155 11.1745 61.9757 10.9851 62.3521 10.6048C62.7269 10.2244 62.9155 9.73918 62.9155 9.14916C62.9155 8.55914 62.7269 8.0731 62.3513 7.69356C62.1732 7.50865 61.9587 7.36251 61.7215 7.26432C61.4842 7.16614 61.2291 7.11802 60.9723 7.12298C60.4284 7.12298 59.969 7.31318 59.5934 7.69356C59.2187 8.07394 59.03 8.55914 59.03 9.14916C59.03 9.73918 59.2187 10.2244 59.5934 10.6048M62.8335 11.0291C62.3343 11.5422 61.7142 11.7983 60.9723 11.7983C60.2304 11.7983 59.6104 11.5422 59.1121 11.0291C58.613 10.5169 58.3643 9.89049 58.3643 9.14916C58.3643 8.40784 58.613 7.78062 59.1121 7.26837C59.6112 6.75612 60.2304 6.5 60.9732 6.5C61.71 6.5 62.3284 6.75697 62.8301 7.27176C63.3309 7.78739 63.5813 8.41291 63.5813 9.14916C63.5813 9.89049 63.3317 10.5169 62.8335 11.0291Z"/>
</mask>
<path fill-rule="evenodd" clip-rule="evenodd" d="M59.5943 10.6048C59.7724 10.7896 59.9868 10.9357 60.2241 11.0338C60.4614 11.1318 60.7165 11.1797 60.9732 11.1745C61.5155 11.1745 61.9757 10.9851 62.3521 10.6048C62.7269 10.2244 62.9155 9.73918 62.9155 9.14916C62.9155 8.55914 62.7269 8.0731 62.3513 7.69356C62.1732 7.50865 61.9587 7.36251 61.7215 7.26432C61.4842 7.16614 61.2291 7.11802 60.9723 7.12298C60.4284 7.12298 59.969 7.31318 59.5934 7.69356C59.2187 8.07394 59.03 8.55914 59.03 9.14916C59.03 9.73918 59.2187 10.2244 59.5934 10.6048M62.8335 11.0291C62.3343 11.5422 61.7142 11.7983 60.9723 11.7983C60.2304 11.7983 59.6104 11.5422 59.1121 11.0291C58.613 10.5169 58.3643 9.89049 58.3643 9.14916C58.3643 8.40784 58.613 7.78062 59.1121 7.26837C59.6112 6.75612 60.2304 6.5 60.9732 6.5C61.71 6.5 62.3284 6.75697 62.8301 7.27176C63.3309 7.78739 63.5813 8.41291 63.5813 9.14916C63.5813 9.89049 63.3317 10.5169 62.8335 11.0291Z" fill="#0B0C0E"/>
<path d="M60.9732 11.1745V10.1745H60.963L60.9528 10.1747L60.9732 11.1745ZM62.3521 10.6048L63.0629 11.3082L63.0645 11.3066L62.3521 10.6048ZM62.3513 7.69356L61.6309 8.38732L61.6405 8.39697L62.3513 7.69356ZM60.9723 7.12298V8.12298H60.982L60.9917 8.1228L60.9723 7.12298ZM59.5934 7.69356L58.8819 6.99094L58.8811 6.99174L59.5934 7.69356ZM62.8335 11.0291L63.5503 11.7264L63.5503 11.7264L62.8335 11.0291ZM59.1121 11.0291L59.8295 10.3324L59.8283 10.3312L59.1121 11.0291ZM62.8301 7.27176L63.5474 6.57504L63.5463 6.57384L62.8301 7.27176ZM58.874 11.2985C59.1478 11.5827 59.4775 11.8073 59.8422 11.958L60.606 10.1095C60.4961 10.0641 60.3969 9.99655 60.3145 9.91105L58.874 11.2985ZM59.8422 11.958C60.207 12.1087 60.599 12.1823 60.9936 12.1743L60.9528 10.1747C60.8339 10.1771 60.7158 10.1549 60.606 10.1095L59.8422 11.958ZM60.9732 12.1745C61.7769 12.1745 62.4947 11.8823 63.0629 11.3082L61.6413 9.90134C61.4566 10.088 61.254 10.1745 60.9732 10.1745V12.1745ZM63.0645 11.3066C63.6426 10.7198 63.9155 9.97336 63.9155 9.14916H61.9155C61.9155 9.50499 61.8111 9.72898 61.6397 9.90294L63.0645 11.3066ZM63.9155 9.14916C63.9155 8.32554 63.6429 7.57708 63.062 6.99015L61.6405 8.39697C61.8108 8.56911 61.9155 8.79275 61.9155 9.14916H63.9155ZM63.0715 6.99987C62.7978 6.71568 62.4684 6.49115 62.1038 6.3403L61.3391 8.18834C61.4491 8.23387 61.5485 8.30161 61.631 8.38725L63.0715 6.99987ZM62.1038 6.3403C61.7392 6.18946 61.3475 6.11554 60.953 6.12317L60.9917 8.1228C61.1108 8.12049 61.2291 8.14281 61.3391 8.18834L62.1038 6.3403ZM60.9723 6.12298C60.166 6.12298 59.4489 6.41672 58.8819 6.99094L60.305 8.39618C60.4892 8.20963 60.6908 8.12298 60.9723 8.12298V6.12298ZM58.8811 6.99174C58.3029 7.57855 58.03 8.32496 58.03 9.14916H60.03C60.03 8.79333 60.1344 8.56934 60.3058 8.39538L58.8811 6.99174ZM58.03 9.14916C58.03 9.97336 58.3029 10.7198 58.8811 11.3066L60.3058 9.90294C60.1344 9.72898 60.03 9.50499 60.03 9.14916H58.03ZM62.1166 10.3318C61.8135 10.6434 61.4555 10.7983 60.9723 10.7983V12.7983C61.973 12.7983 62.8551 12.441 63.5503 11.7264L62.1166 10.3318ZM60.9723 10.7983C60.489 10.7983 60.1314 10.6434 59.8295 10.3324L58.3947 11.7258C59.0893 12.441 59.9719 12.7983 60.9723 12.7983V10.7983ZM59.8283 10.3312C59.5189 10.0136 59.3643 9.64104 59.3643 9.14916H57.3643C57.3643 10.1399 57.7071 11.0201 58.3959 11.727L59.8283 10.3312ZM59.3643 9.14916C59.3643 8.65694 59.5191 8.2836 59.8283 7.96624L58.3959 6.57051C57.7068 7.27765 57.3643 8.15873 57.3643 9.14916H59.3643ZM59.8283 7.96624C60.1317 7.65487 60.4892 7.5 60.9732 7.5V5.5C59.9717 5.5 59.0907 5.85738 58.3959 6.57051L59.8283 7.96624ZM60.9732 7.5C61.448 7.5 61.8058 7.65347 62.1139 7.96967L63.5463 6.57384C62.8511 5.86047 61.972 5.5 60.9732 5.5V7.5ZM62.1127 7.96848C62.4275 8.2926 62.5813 8.6662 62.5813 9.14916H64.5813C64.5813 8.15962 64.2342 7.28217 63.5474 6.57504L62.1127 7.96848ZM62.5813 9.14916C62.5813 9.64029 62.4263 10.0135 62.1166 10.3318L63.5503 11.7264C64.2371 11.0202 64.5813 10.1407 64.5813 9.14916H62.5813Z" fill="#0B0C0E" mask="url(#path-17-inside-6_1_10918)"/>
</g>
<path id="Vector_13" fill-rule="evenodd" clip-rule="evenodd" d="M59.5943 10.6048C59.7724 10.7896 59.9868 10.9357 60.2241 11.0338C60.4614 11.1318 60.7165 11.1797 60.9732 11.1745C61.5155 11.1745 61.9757 10.9851 62.3521 10.6048C62.7269 10.2244 62.9155 9.73918 62.9155 9.14916C62.9155 8.55914 62.7269 8.0731 62.3513 7.69356C62.1732 7.50865 61.9587 7.36251 61.7215 7.26432C61.4842 7.16614 61.2291 7.11802 60.9723 7.12298C60.4284 7.12298 59.969 7.31318 59.5934 7.69356C59.2187 8.07394 59.03 8.55914 59.03 9.14916C59.03 9.73918 59.2187 10.2244 59.5934 10.6048H59.5943ZM62.8343 11.0291C62.3352 11.5422 61.7143 11.7983 60.9732 11.7983C60.2304 11.7983 59.6112 11.5422 59.1121 11.0291C58.613 10.5169 58.3643 9.89049 58.3643 9.14916C58.3643 8.40784 58.613 7.78062 59.1121 7.26837C59.6112 6.75612 60.2304 6.5 60.9732 6.5C61.71 6.5 62.3284 6.75697 62.8301 7.27176C63.3309 7.78739 63.5813 8.41291 63.5813 9.14916C63.5813 9.89049 63.3317 10.5169 62.8335 11.0291H62.8343Z" fill="#0B0C0E" stroke="#0B0C0E" stroke-width="0.2"/>
<g id="Vector_14">
<mask id="path-20-inside-7_1_10918" fill="white">
<path fill-rule="evenodd" clip-rule="evenodd" d="M64.4966 11.6836V6.61182H65.2901L67.7569 10.5568H67.7857L67.7569 9.57965V6.61266H68.41V11.6844H67.729L65.1488 7.54671H65.1201L65.1488 8.52472V11.6836H64.4966Z"/>
</mask>
<path fill-rule="evenodd" clip-rule="evenodd" d="M64.4966 11.6836V6.61182H65.2901L67.7569 10.5568H67.7857L67.7569 9.57965V6.61266H68.41V11.6844H67.729L65.1488 7.54671H65.1201L65.1488 8.52472V11.6836H64.4966Z" fill="#0B0C0E"/>
<path d="M64.4966 11.6836H63.4966V12.6836H64.4966V11.6836ZM64.4966 6.61182V5.61182H63.4966V6.61182H64.4966ZM65.2901 6.61182L66.138 6.08163L65.8442 5.61182H65.2901V6.61182ZM67.7569 10.5568L66.909 11.087L67.2028 11.5568H67.7569V10.5568ZM67.7857 10.5568V11.5568H68.8155L68.7852 10.5274L67.7857 10.5568ZM67.7569 9.57965H66.7569V9.59437L66.7573 9.60907L67.7569 9.57965ZM67.7569 6.61266V5.61266H66.7569V6.61266H67.7569ZM68.41 6.61266H69.41V5.61266H68.41V6.61266ZM68.41 11.6844V12.6844H69.41V11.6844H68.41ZM67.729 11.6844L66.8804 12.2136L67.1741 12.6844H67.729V11.6844ZM65.1488 7.54671L65.9974 7.01759L65.7037 6.54671H65.1488V7.54671ZM65.1201 7.54671V6.54671H64.0902L64.1205 7.57611L65.1201 7.54671ZM65.1488 8.52472H66.1488V8.51002L66.1484 8.49532L65.1488 8.52472ZM65.1488 11.6836V12.6836H66.1488V11.6836H65.1488ZM65.4966 11.6836V6.61182H63.4966V11.6836H65.4966ZM64.4966 7.61182H65.2901V5.61182H64.4966V7.61182ZM64.4422 7.142L66.909 11.087L68.6048 10.0266L66.138 6.08163L64.4422 7.142ZM67.7569 11.5568H67.7857V9.55682H67.7569V11.5568ZM68.7852 10.5274L68.7565 9.55023L66.7573 9.60907L66.7861 10.5862L68.7852 10.5274ZM68.7569 9.57965V6.61266H66.7569V9.57965H68.7569ZM67.7569 7.61266H68.41V5.61266H67.7569V7.61266ZM67.41 6.61266V11.6844H69.41V6.61266H67.41ZM68.41 10.6844H67.729V12.6844H68.41V10.6844ZM68.5775 11.1553L65.9974 7.01759L64.3003 8.07584L66.8804 12.2136L68.5775 11.1553ZM65.1488 6.54671H65.1201V8.54671H65.1488V6.54671ZM64.1205 7.57611L64.1493 8.55412L66.1484 8.49532L66.1196 7.51731L64.1205 7.57611ZM64.1488 8.52472V11.6836H66.1488V8.52472H64.1488ZM65.1488 10.6836H64.4966V12.6836H65.1488V10.6836Z" fill="#0B0C0E" mask="url(#path-20-inside-7_1_10918)"/>
</g>
<path id="Vector_15" fill-rule="evenodd" clip-rule="evenodd" d="M64.4966 11.6836V6.61182H65.2901L67.7569 10.5568H67.7857L67.7569 9.57965V6.61266H68.41V11.6844H67.729L65.1488 7.54671H65.1201L65.1488 8.52472V11.6836H64.4966Z" fill="#0B0C0E" stroke="#0B0C0E" stroke-width="0.2"/>
</g>
<path id="Vector_16" fill-rule="evenodd" clip-rule="evenodd" d="M91.0265 26.0546H92.6042V15.4875H91.0265V26.0546ZM105.245 19.2939L103.435 23.8754H103.381L101.503 19.2939H99.8025L102.62 25.697L101.013 29.2591H102.659L107 19.2939H105.245ZM96.2918 24.8543C95.7757 24.8543 95.0541 24.5965 95.0541 23.9574C95.0541 23.1417 95.9525 22.8289 96.7283 22.8289C97.4211 22.8289 97.7485 22.9786 98.1698 23.1823C98.1118 23.6407 97.8896 24.0626 97.5443 24.3699C97.1991 24.6773 96.7541 24.8493 96.2918 24.8543ZM96.483 19.0631C95.3401 19.0631 94.1566 19.5661 93.6668 20.681L95.0677 21.2651C95.3671 20.681 95.9246 20.4909 96.51 20.4909C97.3264 20.4909 98.1563 20.9794 98.1698 21.8492V21.9583C97.8839 21.796 97.2714 21.5509 96.5236 21.5509C95.0127 21.5509 93.4756 22.3801 93.4756 23.9295C93.4756 25.3437 94.7141 26.2549 96.1014 26.2549C97.1623 26.2549 97.7485 25.779 98.1148 25.2211H98.1698V26.0377H99.6942V21.9862C99.6942 20.1096 98.2916 19.0631 96.483 19.0631ZM86.7274 20.5805H84.4822V16.9584H86.7274C87.9075 16.9584 88.5775 17.9347 88.5775 18.769C88.5775 19.5881 87.9075 20.5805 86.7274 20.5805ZM86.6868 15.4875H82.9045V26.0546H84.4822V22.0513H86.6868C88.4362 22.0513 90.156 20.7859 90.156 18.769C90.156 16.753 88.4362 15.4875 86.6868 15.4875ZM66.0615 24.8568C64.9711 24.8568 64.0583 23.9439 64.0583 22.6912C64.0583 21.4249 64.9711 20.4985 66.0615 20.4985C67.1376 20.4985 67.9827 21.4249 67.9827 22.6912C67.9827 23.9439 67.1376 24.8568 66.0615 24.8568ZM67.8736 19.8856H67.8194C67.465 19.4638 66.7831 19.0826 65.9253 19.0826C64.126 19.0826 62.4763 20.6624 62.4763 22.6912C62.4763 24.7063 64.126 26.2727 65.9253 26.2727C66.7831 26.2727 67.465 25.8915 67.8194 25.4561H67.8736V25.9726C67.8736 27.3487 67.1376 28.0833 65.9524 28.0833C64.9846 28.0833 64.3848 27.3893 64.1395 26.8035L62.7631 27.3758C63.1582 28.3293 64.2072 29.5 65.9524 29.5C67.8059 29.5 69.3734 28.4104 69.3734 25.7554V19.2998H67.8736V19.8856ZM70.4639 26.0546H72.0441V15.4875H70.4639V26.0546ZM74.3747 22.5686C74.3341 21.1798 75.4516 20.4714 76.2553 20.4714C76.883 20.4714 77.4142 20.785 77.5919 21.2339L74.3747 22.5686ZM79.2813 21.37C78.981 20.5669 78.0682 19.0826 76.2011 19.0826C74.3477 19.0826 72.8072 20.5399 72.8072 22.6776C72.8072 24.6928 74.3341 26.2727 76.378 26.2727C78.0267 26.2727 78.981 25.2651 79.3769 24.6793L78.1502 23.8619C77.7408 24.4612 77.1825 24.8568 76.378 24.8568C75.5743 24.8568 75.0016 24.4891 74.6344 23.7672L79.4445 21.7791L79.2813 21.37ZM40.9527 20.1857V21.7106H44.6047C44.4964 22.5686 44.2096 23.195 43.7739 23.6303C43.2418 24.162 42.4103 24.7478 40.9527 24.7478C38.7033 24.7478 36.9454 22.9363 36.9454 20.6895C36.9454 18.4427 38.7033 16.6312 40.9527 16.6312C42.1658 16.6312 43.0515 17.108 43.7054 17.7208L44.7823 16.6448C43.8687 15.7733 42.6564 15.1055 40.9527 15.1055C37.8717 15.1055 35.2822 17.6118 35.2822 20.6895C35.2822 23.7672 37.8717 26.2727 40.9527 26.2727C42.615 26.2727 43.8687 25.7275 44.85 24.7064C45.8584 23.6988 46.1722 22.2829 46.1722 21.1384C46.1722 20.785 46.1452 20.4579 46.0902 20.1857H40.9527ZM50.3242 24.8568C49.2346 24.8568 48.2939 23.9574 48.2939 22.6776C48.2939 21.3835 49.2346 20.4985 50.3242 20.4985C51.4146 20.4985 52.3553 21.3835 52.3553 22.6776C52.3553 23.9574 51.4146 24.8568 50.3242 24.8568ZM50.3242 19.0826C48.3345 19.0826 46.7128 20.594 46.7128 22.6776C46.7128 24.7478 48.3345 26.2727 50.3242 26.2727C52.3147 26.2727 53.9364 24.7478 53.9364 22.6776C53.9364 20.594 52.3147 19.0826 50.3242 19.0826ZM58.2034 24.8568C57.113 24.8568 56.1723 23.9574 56.1723 22.6776C56.1723 21.3835 57.113 20.4985 58.2034 20.4985C59.2939 20.4985 60.2337 21.3835 60.2337 22.6776C60.2337 23.9574 59.2939 24.8568 58.2034 24.8568ZM58.2034 19.0826C56.2137 19.0826 54.592 20.594 54.592 22.6776C54.592 24.7478 56.2137 26.2727 58.2034 26.2727C60.1931 26.2727 61.8148 24.7478 61.8148 22.6776C61.8148 20.594 60.1931 19.0826 58.2034 19.0826Z" fill="#0B0C0E"/>
<g id="Group 1002">
<path id="Vector_17" fill-rule="evenodd" clip-rule="evenodd" d="M9.39168 7.06659C9.1455 7.32694 9 7.73099 9 8.25423V26.9488C9 27.4729 9.1455 27.8761 9.39168 28.1365L9.45343 28.1973L19.9348 17.7249V17.4781L9.45343 7.00488L9.39168 7.06659Z" fill="url(#paint0_linear_1_10918)"/>
<path id="Vector_18" fill-rule="evenodd" clip-rule="evenodd" d="M19.9351 17.4787V17.7256L23.428 21.2183L23.5075 21.1735L27.6468 18.8236C28.8286 18.1516 28.8286 17.0527 27.6468 16.3815L23.5075 14.0316L23.4289 13.9868L19.9351 17.4787Z" fill="url(#paint1_linear_1_10918)"/>
<path id="Vector_19" fill-rule="evenodd" clip-rule="evenodd" d="M9.3916 28.137C9.78074 28.5495 10.4245 28.6002 11.1495 28.1885L23.5072 21.1726L19.9348 17.6021L9.3916 28.137Z" fill="url(#paint2_linear_1_10918)"/>
<path id="Vector_20" fill-rule="evenodd" clip-rule="evenodd" d="M9.3916 7.06787L19.9348 17.6028L23.5072 14.0323L11.1495 7.01631C10.8094 6.82274 10.4871 6.73145 10.2012 6.73145C9.87633 6.73145 9.59801 6.84894 9.3916 7.06787Z" fill="url(#paint3_linear_1_10918)"/>
</g>
</g>
</g>
<defs>
<linearGradient id="paint0_linear_1_10918" x1="14.4674" y1="7.00488" x2="14.4674" y2="28.1973" gradientUnits="userSpaceOnUse">
<stop stop-color="#00A0FF"/>
<stop offset="0.2657" stop-color="#00B2FF"/>
<stop offset="1" stop-color="#00E3FF"/>
</linearGradient>
<linearGradient id="paint1_linear_1_10918" x1="28.5331" y1="17.6026" x2="19.9351" y2="17.6026" gradientUnits="userSpaceOnUse">
<stop stop-color="#FFE000"/>
<stop offset="1" stop-color="#FF9C00"/>
</linearGradient>
<linearGradient id="paint2_linear_1_10918" x1="16.4494" y1="17.6021" x2="16.4494" y2="28.473" gradientUnits="userSpaceOnUse">
<stop stop-color="#FF3A44"/>
<stop offset="1" stop-color="#C31162"/>
</linearGradient>
<linearGradient id="paint3_linear_1_10918" x1="16.5564" y1="6.64991" x2="16.5564" y2="17.63" gradientUnits="userSpaceOnUse">
<stop stop-color="#32A071"/>
<stop offset="1" stop-color="#00F076"/>
</linearGradient>
</defs>
</svg>
